<svg width="195" height="24" viewBox="0 0 195 24" fill="none" xmlns="http://www.w3.org/2000/svg">
<path fill-rule="evenodd" clip-rule="evenodd" d="M49.9894 0.281784C46.3502 1.04872 44.1316 3.39815 43.9689 6.65766C43.8851 8.33797 44.1192 9.27117 44.9084 10.4018C45.9888 11.9497 47.8571 12.8124 52.0994 13.7223C56.4458 14.6544 57.5298 15.3151 57.5298 17.0315C57.5298 18.8317 56.0723 19.988 53.6324 20.1238C51.0438 20.2681 48.7076 19.3817 47.0968 17.6445L46.1923 16.6691L44.4323 17.9121C42.3946 19.3512 42.4037 19.2574 44.1417 20.9121C46.282 22.9497 48.939 23.893 52.596 23.9139C55.2699 23.9291 57.0047 23.5526 58.5964 22.6113C60.1046 21.7194 60.8114 20.9899 61.4971 19.6171C62.0437 18.5226 62.0901 18.2877 62.0778 16.6808C62.0618 14.5718 61.6933 13.6146 60.4111 12.3506C59.2339 11.1902 57.7379 10.5718 53.7486 9.59582C51.8859 9.14032 50.0187 8.60518 49.5992 8.40697C47.8106 7.56186 48.0565 5.31318 50.0431 4.34878C50.764 3.99881 51.219 3.92283 52.596 3.92302C54.0124 3.92302 54.4315 3.99697 55.3062 4.40127C56.3183 4.86906 57.5432 5.8821 58.1304 6.73694L58.4245 7.16527L60.1182 5.91477C61.0497 5.22693 61.8119 4.58883 61.8119 4.4967C61.8119 4.40457 61.2212 3.77069 60.4991 3.088C57.7308 0.470626 53.9206 -0.546812 49.9894 0.281784ZM95.3244 0.25242C91.455 1.11754 88.4111 4.21371 87.3858 8.32733C86.8977 10.2859 86.9437 13.9552 87.4799 15.8383C88.8961 20.8121 92.2382 23.6217 97.1238 23.9457C99.0603 24.0741 101.015 23.7295 102.551 22.9888C103.918 22.3292 105.689 20.6421 106.61 19.1216C107.853 17.0688 107.892 17.2081 105.835 16.3349C104.852 15.9177 103.949 15.5779 103.829 15.5795C103.708 15.5812 103.413 16.0293 103.174 16.5753C102.032 19.1743 99.7326 20.4463 97.0564 19.9587C93.5761 19.3244 91.6112 16.3868 91.6036 11.8069C91.5991 9.13775 92.3423 7.00891 93.7698 5.60241C94.6621 4.72317 95.4852 4.30254 96.8604 4.02285C98.0085 3.78923 99.5685 3.98541 100.563 4.48826C101.344 4.8832 102.525 6.33558 102.793 7.23042C102.928 7.68225 103.126 8.0526 103.231 8.05351C103.337 8.05425 104.272 7.83769 105.31 7.57232L107.197 7.09003L107.011 6.42404C106.508 4.62241 104.684 2.28785 103.036 1.33538C100.982 0.148548 97.792 -0.299426 95.3244 0.25242ZM0 12.0895V23.6513H1.8618H3.72361V12.0895V0.527701H1.8618H0V12.0895ZM13.5335 1.30766C11.4324 4.09846 5.58541 12.3125 5.58541 12.4732C5.58541 12.5852 7.31838 15.146 9.43656 18.164L13.2879 23.6513H15.9551H18.6221L17.7028 22.4125C17.1971 21.7311 15.3532 19.2743 13.6053 16.9528C11.8573 14.6313 10.4669 12.6268 10.5155 12.4984C10.5641 12.3701 12.5325 9.71639 14.8902 6.60132C17.2478 3.48642 19.1766 0.886667 19.1766 0.824454C19.1766 0.762241 18.0079 0.711222 16.5796 0.711222H13.9825L13.5335 1.30766ZM19.9671 2.59653L18.6166 4.47339L22.2478 4.52313L25.8791 4.57286V14.1121V23.6513H28.0202H30.1612V14.113V4.5747L33.0005 4.52405L35.8397 4.47339L35.8928 2.59231L35.9459 0.711222L28.6318 0.715443L21.3177 0.719664L19.9671 2.59653ZM66.4664 12.1813V23.6513H75.2169H83.9674V21.8185V19.9855L77.3114 19.9374L70.6555 19.8891V12.1813V4.47339L76.846 4.42513L83.0365 4.37668V2.54404V0.711222H74.7514H66.4664V12.1813ZM111.374 9.38257C111.434 17.9385 111.441 18.0681 111.864 19.1086C112.776 21.3496 115.186 23.1413 118.077 23.7275C119.85 24.087 120.92 24.0901 122.6 23.741C125.403 23.1584 127.466 21.6717 128.523 19.4716L129.116 18.2374L129.171 9.47433L129.226 0.711222H127.17H125.113L125.107 7.73089C125.101 15.6096 124.978 17.1319 124.262 18.198C122.94 20.1677 118.717 20.4725 116.858 18.7324C115.681 17.6302 115.716 17.9199 115.656 8.92377L115.6 0.711222H113.456H111.313L111.374 9.38257ZM134.422 12.1813V23.6513H136.563H138.704V19.4246V15.198L140.952 15.2495L143.199 15.3011L145.46 19.4762L147.721 23.6513H150.101C151.41 23.6513 152.482 23.6133 152.482 23.5667C152.482 23.4966 150.689 20.2516 148 15.4527L147.468 14.5032L148.489 13.935C150.669 12.7223 151.901 10.8838 152.067 8.59435C152.274 5.74097 150.875 2.97403 148.612 1.76004C146.912 0.847761 145.817 0.716911 139.868 0.713975L134.422 0.711222V12.1813ZM156.019 12.1813V23.6513H164.77H173.52V21.8161V19.9809H166.911H160.301V12.1813V4.38163H166.445H172.589V2.54643V0.711222H164.304H156.019V12.1813ZM180.595 0.792521C180.595 0.842806 182.569 3.4967 184.983 6.68996C187.396 9.88321 189.331 12.5953 189.284 12.717C189.237 12.8384 187.391 15.3485 185.182 18.2947L181.167 23.6513H183.835H186.503L190.251 18.3149C192.875 14.5795 194 12.8291 194 12.4802C194 12.1247 192.839 10.3824 189.944 6.39247L185.889 0.802982L183.242 0.752147C181.786 0.724068 180.595 0.742237 180.595 0.792521ZM145.243 4.66481C147.354 5.3987 148.19 7.58609 147.131 9.60555C146.796 10.244 146.538 10.4703 145.5 11.0341C144.821 11.4028 144.493 11.4387 141.776 11.4428L138.798 11.4472L138.747 7.91441L138.696 4.38163H141.563C143.67 4.38163 144.645 4.45669 145.243 4.66481ZM73.1689 11.7225V13.5577H77.5441H81.9194V11.7225V9.88725H77.5441H73.1689V11.7225ZM162.908 11.7225V13.5577H167.283H171.658V11.7225V9.88725H167.283H162.908V11.7225Z" fill="white"/>
<path d="M14 0.424805H20L10.5 12.9248L5.5 12.4248L14 0.424805Z" fill="#FF4040"/>
<path d="M10.5 12.4248H5.5L13.5 23.9248H19L10.5 12.4248Z" fill="#FF4040"/>
<path d="M185.5 0.424805H180L189 12.9248L194.5 11.9248L185.5 0.424805Z" fill="#FF4040"/>
<path d="M189 12.4248L194.5 11.9248L186.704 23.9248H180.5L189 12.4248Z" fill="#FF4040"/>
</svg>
